<?xml version="1.0" encoding="UTF-8" standalone="no"?>
<!-- Created with Inkscape (http://www.inkscape.org/) -->

<svg
   xmlns:dc="http://purl.org/dc/elements/1.1/"
   xmlns:cc="http://creativecommons.org/ns#"
   xmlns:rdf="http://www.w3.org/1999/02/22-rdf-syntax-ns#"
   xmlns:svg="http://www.w3.org/2000/svg"
   xmlns="http://www.w3.org/2000/svg"
   xmlns:sodipodi="http://sodipodi.sourceforge.net/DTD/sodipodi-0.dtd"
   xmlns:inkscape="http://www.inkscape.org/namespaces/inkscape"
   width="210mm"
   height="297mm"
   viewBox="0 0 744.09448819 1052.3622047"
   id="svg2"
   version="1.1"
   inkscape:version="0.91 r13725"
   sodipodi:docname="matomat_case.svg">
  <sodipodi:namedview
     id="base"
     pagecolor="#ffffff"
     bordercolor="#666666"
     borderopacity="1.0"
     inkscape:pageopacity="0.0"
     inkscape:pageshadow="2"
     inkscape:zoom="0.175"
     inkscape:cx="718.94521"
     inkscape:cy="-219.63024"
     inkscape:document-units="mm"
     inkscape:current-layer="layer1"
     showgrid="false"
     inkscape:window-width="1366"
     inkscape:window-height="713"
     inkscape:window-x="0"
     inkscape:window-y="0"
     inkscape:window-maximized="1" />
  <defs
     id="defs4" />
  <metadata
     id="metadata7">
    <rdf:RDF>
      <cc:Work
         rdf:about="">
        <dc:format>image/svg+xml</dc:format>
        <dc:type
           rdf:resource="http://purl.org/dc/dcmitype/StillImage" />
        <dc:title></dc:title>
      </cc:Work>
    </rdf:RDF>
  </metadata>
  <g
     inkscape:label="Ebene 1"
     inkscape:groupmode="layer"
     id="layer1">
    <g
       id="g3408"
       transform="matrix(0,-1,1,0,-1299.0198,1654.8996)">
      <rect
         y="-15.155243"
         x="223.74065"
         height="432.21191"
         width="661.32764"
         id="rect3406"
         style="fill:#ff0000;fill-opacity:1;stroke:none;stroke-opacity:1" />
      <rect
         y="-19.177841"
         x="223.89195"
         height="440.32678"
         width="584.29132"
         id="rect3336"
         style="fill:#29867e;fill-opacity:1;stroke:none;stroke-opacity:1" />
      <rect
         y="22.1889"
         x="224.70413"
         height="350.8876"
         width="580.58154"
         id="rect3391"
         style="fill:#000080;fill-opacity:1;stroke:none;stroke-opacity:1" />
      <rect
         y="38.076488"
         x="237.14285"
         height="307.85715"
         width="545.71429"
         id="rect3395"
         style="fill:#000000;fill-opacity:1;stroke:none;stroke-opacity:1" />
    </g>
    <g
       id="g3967"
       transform="translate(-217.14285,80)">
      <path
         id="path3525"
         inkscape:label="part"
         style="fill:none;stroke:#000000"
         d="m 751.1811,1516.5354 37.80456,0 0,-17.7165 35.75197,0 0,17.7165 37.6451,0 0,-17.7165 35.75197,0 0,17.7165 37.64511,0 0,-17.7165 35.75197,0 0,17.7165 37.64512,0 0,-17.7165 35.752,0 0,17.7165 37.6451,0 0,-17.7165 35.7519,0 0,17.7165 37.6451,0 0,-17.7165 35.752,0 0,17.7165 37.8046,0"
         inkscape:connector-curvature="0" />
      <path
         id="path3527"
         inkscape:label="part"
         style="fill:none;stroke:#000000"
         d="m 1229.5276,1516.5354 0,17.876 -17.7166,0 0,35.1142 17.7166,0 0,35.752 -17.7166,0 0,35.1141 17.7166,0 0,35.752 -17.7166,0 0,35.1142 17.7166,0 0,35.7519 -17.7166,0 0,35.1142 17.7166,0 0,35.752 -17.7166,0 0,35.1142 17.7166,0 0,35.7519 -17.7166,0 0,35.1142 17.7166,0 0,35.752 -17.7166,0 0,35.1141 17.7166,0 0,35.752 -17.7166,0 0,35.1142 17.7166,0 0,35.752 -17.7166,0 0,35.1141 17.7166,0 0,35.752 -17.7166,0 0,35.1142 17.7166,0 0,17.876"
         inkscape:connector-curvature="0" />
      <path
         id="path3529"
         inkscape:label="part"
         style="fill:none;stroke:#000000"
         d="m 1229.5276,2225.1969 -37.8046,0 0,17.7165 -35.752,0 0,-17.7165 -37.6451,0 0,17.7165 -35.7519,0 0,-17.7165 -37.6451,0 0,17.7165 -35.752,0 0,-17.7165 -37.64512,0 0,17.7165 -35.75197,0 0,-17.7165 -37.64511,0 0,17.7165 -35.75197,0 0,-17.7165 -37.6451,0 0,17.7165 -35.75197,0 0,-17.7165 -37.80456,0"
         inkscape:connector-curvature="0" />
      <path
         id="path3531"
         inkscape:label="part"
         style="fill:none;stroke:#000000"
         d="m 751.1811,2225.1969 0,-17.876 17.71654,0 0,-35.1142 -17.71654,0 0,-35.752 17.71654,0 0,-35.1141 -17.71654,0 0,-35.752 17.71654,0 0,-35.1142 -17.71654,0 0,-35.752 17.71654,0 0,-35.1141 -17.71654,0 0,-35.752 17.71654,0 0,-35.1142 -17.71654,0 0,-35.7519 17.71654,0 0,-35.1142 -17.71654,0 0,-35.752 17.71654,0 0,-35.1142 -17.71654,0 0,-35.7519 17.71654,0 0,-35.1142 -17.71654,0 0,-35.752 17.71654,0 0,-35.1141 -17.71654,0 0,-35.752 17.71654,0 0,-35.1142 -17.71654,0 0,-17.876"
         inkscape:connector-curvature="0" />
    </g>
    <g
       id="g3973"
       transform="translate(-214.28571,77.142857)">
      <path
         id="path3533"
         inkscape:label="part"
         style="fill:none;stroke:#000000"
         d="m 21.259843,768.89764 17.557086,0 0,-17.71654 35.751969,0 0,17.71654 35.114172,0 0,-17.71654 35.75197,0 0,17.71654 35.11417,0 0,-17.71654 35.75197,0 0,17.71654 35.11417,0 0,-17.71654 35.75197,0 0,17.71654 35.11418,0 0,-17.71654 35.75196,0 0,17.71654 35.11418,0 0,-17.71654 35.75197,0 0,17.71654 35.11417,0 0,-17.71654 35.75197,0 0,17.71654 35.11417,0 0,-17.71654 35.75197,0 0,17.71654 35.11417,0 0,-17.71654 35.75197,0 0,17.71654 35.11417,0 0,-17.71654 35.75197,0 0,17.71654 17.55709,0"
         inkscape:connector-curvature="0" />
      <path
         id="path3535"
         inkscape:label="part"
         style="fill:none;stroke:#000000"
         d="m 729.92126,768.89764 0,17.55708 17.71654,0 0,35.75197 -17.71654,0 0,35.11418 17.71654,0 0,35.75196 -17.71654,0 0,35.11418 17.71654,0 0,35.75197 -17.71654,0 0,35.11417 17.71654,0 0,35.75195 -17.71654,0 0,35.1142 17.71654,0 0,35.752 -17.71654,0 0,35.1141 17.71654,0 0,35.752 -17.71654,0 0,35.1142 17.71654,0 0,35.7519 -17.71654,0 0,35.1142 17.71654,0 0,35.752 -17.71654,0 0,35.1142 17.71654,0 0,35.7519 -17.71654,0 0,35.1142 17.71654,0 0,35.752 -17.71654,0 0,17.5571"
         inkscape:connector-curvature="0" />
      <path
         id="path3537"
         inkscape:label="part"
         style="fill:none;stroke:#000000"
         d="m 729.92126,1477.5591 -17.55709,0 0,17.7165 -35.75197,0 0,-17.7165 -35.11417,0 0,17.7165 -35.75197,0 0,-17.7165 -35.11417,0 0,17.7165 -35.75197,0 0,-17.7165 -35.11417,0 0,17.7165 -35.75197,0 0,-17.7165 -35.11417,0 0,17.7165 -35.75197,0 0,-17.7165 -35.11418,0 0,17.7165 -35.75196,0 0,-17.7165 -35.11418,0 0,17.7165 -35.75197,0 0,-17.7165 -35.11417,0 0,17.7165 -35.75197,0 0,-17.7165 -35.11417,0 0,17.7165 -35.75197,0 0,-17.7165 -35.114172,0 0,17.7165 -35.751969,0 0,-17.7165 -17.557086,0"
         inkscape:connector-curvature="0" />
      <path
         id="path3539"
         inkscape:label="part"
         style="fill:none;stroke:#000000"
         d="m 21.259843,1477.5591 0,-17.5571 -17.7165359,0 0,-35.752 17.7165359,0 0,-35.1142 -17.7165359,0 0,-35.7519 17.7165359,0 0,-35.1142 -17.7165359,0 0,-35.752 17.7165359,0 0,-35.1142 -17.7165359,0 0,-35.7519 17.7165359,0 0,-35.1142 -17.7165359,0 0,-35.752 17.7165359,0 0,-35.1141 -17.7165359,0 0,-35.752 17.7165359,0 0,-35.1142 -17.7165359,0 0,-35.75195 17.7165359,0 0,-35.11417 -17.7165359,0 0,-35.75197 17.7165359,0 0,-35.11418 -17.7165359,0 0,-35.75196 17.7165359,0 0,-35.11418 -17.7165359,0 0,-35.75197 17.7165359,0 0,-17.55708"
         inkscape:connector-curvature="0" />
    </g>
    <g
       id="g3979"
       transform="translate(-214.28571,79.999999)">
      <path
         id="path3541"
         inkscape:label="part"
         style="fill:none;stroke:#000000"
         d="m 751.1811,751.1811 38.12346,0 0,17.71654 35.11417,0 0,-17.71654 38.2829,0 0,17.71654 35.11417,0 0,-17.71654 38.28291,0 0,17.71654 35.11417,0 0,-17.71654 38.28292,0 0,17.71654 35.1142,0 0,-17.71654 38.2829,0 0,17.71654 35.1141,0 0,-17.71654 38.2829,0 0,17.71654 35.1142,0 0,-17.71654 38.1235,0"
         inkscape:connector-curvature="0" />
      <path
         id="path3543"
         inkscape:label="part"
         style="fill:none;stroke:#000000"
         d="m 1229.5276,751.1811 0,35.59252 -17.7166,0 0,35.11418 17.7166,0 0,35.75196 -17.7166,0 0,35.11418 17.7166,0 0,35.75197 -17.7166,0 0,35.11417 17.7166,0 0,35.75197 -17.7166,0 0,35.11415 17.7166,0 0,35.752 -17.7166,0 0,35.1142 17.7166,0 0,35.7519 -17.7166,0 0,35.1142 17.7166,0 0,35.752 -17.7166,0 0,35.1141 17.7166,0 0,35.752 -17.7166,0 0,35.1142 17.7166,0 0,35.752 -17.7166,0 0,35.1141 17.7166,0 0,35.752 -17.7166,0 0,35.1142 17.7166,0 0,35.5925"
         inkscape:connector-curvature="0" />
      <path
         id="path3545"
         inkscape:label="part"
         style="fill:none;stroke:#000000"
         d="m 1229.5276,1495.2756 -38.1235,0 0,-17.7165 -35.1142,0 0,17.7165 -38.2829,0 0,-17.7165 -35.1141,0 0,17.7165 -38.2829,0 0,-17.7165 -35.1142,0 0,17.7165 -38.28292,0 0,-17.7165 -35.11417,0 0,17.7165 -38.28291,0 0,-17.7165 -35.11417,0 0,17.7165 -38.2829,0 0,-17.7165 -35.11417,0 0,17.7165 -38.12346,0"
         inkscape:connector-curvature="0" />
      <path
         id="path3547"
         inkscape:label="part"
         style="fill:none;stroke:#000000"
         d="m 751.1811,1495.2756 0,-35.5925 17.71654,0 0,-35.1142 -17.71654,0 0,-35.752 17.71654,0 0,-35.1141 -17.71654,0 0,-35.752 17.71654,0 0,-35.1142 -17.71654,0 0,-35.752 17.71654,0 0,-35.1141 -17.71654,0 0,-35.752 17.71654,0 0,-35.1142 -17.71654,0 0,-35.7519 17.71654,0 0,-35.1142 -17.71654,0 0,-35.752 17.71654,0 0,-35.11415 -17.71654,0 0,-35.75197 17.71654,0 0,-35.11417 -17.71654,0 0,-35.75197 17.71654,0 0,-35.11418 -17.71654,0 0,-35.75196 17.71654,0 0,-35.11418 -17.71654,0 0,-35.59252"
         inkscape:connector-curvature="0" />
    </g>
    <g
       id="g3985"
       transform="translate(-217.14285,85.714281)">
      <path
         id="path3549"
         inkscape:label="part"
         style="fill:none;stroke:#000000"
         d="m 1250.7874,768.89764 17.5571,0 0,-17.71654 35.752,0 0,17.71654 35.1141,0 0,-17.71654 35.752,0 0,17.71654 35.1142,0 0,-17.71654 35.7519,0 0,17.71654 35.1142,0 0,-17.71654 35.752,0 0,17.71654 35.1142,0 0,-17.71654 35.7519,0 0,17.71654 35.1142,0 0,-17.71654 35.752,0 0,17.71654 35.1141,0 0,-17.71654 35.752,0 0,17.71654 35.1142,0 0,-17.71654 35.7519,0 0,17.71654 35.1142,0 0,-17.71654 35.752,0 0,17.71654 35.1142,0 0,-17.71654 35.7519,0 0,17.71654 17.5571,0"
         inkscape:connector-curvature="0" />
      <path
         id="path3551"
         inkscape:label="part"
         style="fill:none;stroke:#000000"
         d="m 1959.4488,768.89764 0,17.55708 17.7166,0 0,35.75197 -17.7166,0 0,35.11418 17.7166,0 0,35.75196 -17.7166,0 0,35.11418 17.7166,0 0,35.75197 -17.7166,0 0,35.11417 17.7166,0 0,35.75195 -17.7166,0 0,35.1142 17.7166,0 0,35.752 -17.7166,0 0,35.1141 17.7166,0 0,35.752 -17.7166,0 0,35.1142 17.7166,0 0,35.7519 -17.7166,0 0,35.1142 17.7166,0 0,35.752 -17.7166,0 0,35.1142 17.7166,0 0,35.7519 -17.7166,0 0,35.1142 17.7166,0 0,35.752 -17.7166,0 0,17.5571"
         inkscape:connector-curvature="0" />
      <path
         id="path3553"
         inkscape:label="part"
         style="fill:none;stroke:#000000"
         d="m 1959.4488,1477.5591 -17.5571,0 0,17.7165 -35.7519,0 0,-17.7165 -35.1142,0 0,17.7165 -35.752,0 0,-17.7165 -35.1142,0 0,17.7165 -35.7519,0 0,-17.7165 -35.1142,0 0,17.7165 -35.752,0 0,-17.7165 -35.1141,0 0,17.7165 -35.752,0 0,-17.7165 -35.1142,0 0,17.7165 -35.7519,0 0,-17.7165 -35.1142,0 0,17.7165 -35.752,0 0,-17.7165 -35.1142,0 0,17.7165 -35.7519,0 0,-17.7165 -35.1142,0 0,17.7165 -35.752,0 0,-17.7165 -35.1141,0 0,17.7165 -35.752,0 0,-17.7165 -17.5571,0"
         inkscape:connector-curvature="0" />
      <path
         id="path3555"
         inkscape:label="part"
         style="fill:none;stroke:#000000"
         d="m 1250.7874,1477.5591 0,-17.5571 -17.7165,0 0,-35.752 17.7165,0 0,-35.1142 -17.7165,0 0,-35.7519 17.7165,0 0,-35.1142 -17.7165,0 0,-35.752 17.7165,0 0,-35.1142 -17.7165,0 0,-35.7519 17.7165,0 0,-35.1142 -17.7165,0 0,-35.752 17.7165,0 0,-35.1141 -17.7165,0 0,-35.752 17.7165,0 0,-35.1142 -17.7165,0 0,-35.75195 17.7165,0 0,-35.11417 -17.7165,0 0,-35.75197 17.7165,0 0,-35.11418 -17.7165,0 0,-35.75196 17.7165,0 0,-35.11418 -17.7165,0 0,-35.75197 17.7165,0 0,-17.55708"
         inkscape:connector-curvature="0" />
    </g>
    <g
       id="g3991"
       transform="translate(-217.14286,88.571429)">
      <path
         id="path3557"
         inkscape:label="part"
         style="fill:none;stroke:#000000"
         d="m 1980.7087,751.1811 38.1234,0 0,17.71654 35.1142,0 0,-17.71654 38.2829,0 0,17.71654 35.1142,0 0,-17.71654 38.2829,0 0,17.71654 35.1141,0 0,-17.71654 38.2829,0 0,17.71654 35.1142,0 0,-17.71654 38.2829,0 0,17.71654 35.1142,0 0,-17.71654 38.2829,0 0,17.71654 35.1142,0 0,-17.71654 38.1234,0"
         inkscape:connector-curvature="0" />
      <path
         id="path3559"
         inkscape:label="part"
         style="fill:none;stroke:#000000"
         d="m 2459.0551,751.1811 0,35.59252 -17.7165,0 0,35.11418 17.7165,0 0,35.75196 -17.7165,0 0,35.11418 17.7165,0 0,35.75197 -17.7165,0 0,35.11417 17.7165,0 0,35.75197 -17.7165,0 0,35.11415 17.7165,0 0,35.752 -17.7165,0 0,35.1142 17.7165,0 0,35.7519 -17.7165,0 0,35.1142 17.7165,0 0,35.752 -17.7165,0 0,35.1141 17.7165,0 0,35.752 -17.7165,0 0,35.1142 17.7165,0 0,35.752 -17.7165,0 0,35.1141 17.7165,0 0,35.752 -17.7165,0 0,35.1142 17.7165,0 0,35.5925"
         inkscape:connector-curvature="0" />
      <path
         id="path3561"
         inkscape:label="part"
         style="fill:none;stroke:#000000"
         d="m 2459.0551,1495.2756 -38.1234,0 0,-17.7165 -35.1142,0 0,17.7165 -38.2829,0 0,-17.7165 -35.1142,0 0,17.7165 -38.2829,0 0,-17.7165 -35.1142,0 0,17.7165 -38.2829,0 0,-17.7165 -35.1141,0 0,17.7165 -38.2829,0 0,-17.7165 -35.1142,0 0,17.7165 -38.2829,0 0,-17.7165 -35.1142,0 0,17.7165 -38.1234,0"
         inkscape:connector-curvature="0" />
      <path
         id="path3563"
         inkscape:label="part"
         style="fill:none;stroke:#000000"
         d="m 1980.7087,1495.2756 0,-35.5925 17.7165,0 0,-35.1142 -17.7165,0 0,-35.752 17.7165,0 0,-35.1141 -17.7165,0 0,-35.752 17.7165,0 0,-35.1142 -17.7165,0 0,-35.752 17.7165,0 0,-35.1141 -17.7165,0 0,-35.752 17.7165,0 0,-35.1142 -17.7165,0 0,-35.7519 17.7165,0 0,-35.1142 -17.7165,0 0,-35.752 17.7165,0 0,-35.11415 -17.7165,0 0,-35.75197 17.7165,0 0,-35.11417 -17.7165,0 0,-35.75197 17.7165,0 0,-35.11418 -17.7165,0 0,-35.75196 17.7165,0 0,-35.11418 -17.7165,0 0,-35.59252"
         inkscape:connector-curvature="0" />
    </g>
    <g
       id="g3997"
       transform="translate(-217.14286,77.142857)">
      <path
         id="path3565"
         inkscape:label="part"
         style="fill:none;stroke:#000000"
         d="m 751.1811,21.259843 37.80456,0 0,-17.7165359 35.75197,0 0,17.7165359 37.6451,0 0,-17.7165359 35.75197,0 0,17.7165359 37.64511,0 0,-17.7165359 35.75197,0 0,17.7165359 37.64512,0 0,-17.7165359 35.752,0 0,17.7165359 37.6451,0 0,-17.7165359 35.7519,0 0,17.7165359 37.6451,0 0,-17.7165359 35.752,0 0,17.7165359 37.8046,0"
         inkscape:connector-curvature="0" />
      <path
         id="path3567"
         inkscape:label="part"
         style="fill:none;stroke:#000000"
         d="m 1229.5276,21.259843 0,17.875984 -17.7166,0 0,35.114173 17.7166,0 0,35.75197 -17.7166,0 0,35.11417 17.7166,0 0,35.75197 -17.7166,0 0,35.11417 17.7166,0 0,35.75197 -17.7166,0 0,35.11418 17.7166,0 0,35.75196 -17.7166,0 0,35.11418 17.7166,0 0,35.75197 -17.7166,0 0,35.11417 17.7166,0 0,35.75197 -17.7166,0 0,35.11417 17.7166,0 0,35.75197 -17.7166,0 0,35.11417 17.7166,0 0,35.75197 -17.7166,0 0,35.11417 17.7166,0 0,35.75197 -17.7166,0 0,35.11418 17.7166,0 0,17.87598"
         inkscape:connector-curvature="0" />
      <path
         id="path3569"
         inkscape:label="part"
         style="fill:none;stroke:#000000"
         d="m 1229.5276,729.92126 -37.8046,0 0,17.71654 -35.752,0 0,-17.71654 -37.6451,0 0,17.71654 -35.7519,0 0,-17.71654 -37.6451,0 0,17.71654 -35.752,0 0,-17.71654 -37.64512,0 0,17.71654 -35.75197,0 0,-17.71654 -37.64511,0 0,17.71654 -35.75197,0 0,-17.71654 -37.6451,0 0,17.71654 -35.75197,0 0,-17.71654 -37.80456,0"
         inkscape:connector-curvature="0" />
      <path
         id="path3571"
         inkscape:label="part"
         style="fill:none;stroke:#000000"
         d="m 751.1811,729.92126 0,-17.87598 17.71654,0 0,-35.11418 -17.71654,0 0,-35.75197 17.71654,0 0,-35.11417 -17.71654,0 0,-35.75197 17.71654,0 0,-35.11417 -17.71654,0 0,-35.75197 17.71654,0 0,-35.11417 -17.71654,0 0,-35.75197 17.71654,0 0,-35.11417 -17.71654,0 0,-35.75197 17.71654,0 0,-35.11418 -17.71654,0 0,-35.75196 17.71654,0 0,-35.11418 -17.71654,0 0,-35.75197 17.71654,0 0,-35.11417 -17.71654,0 0,-35.75197 17.71654,0 0,-35.11417 -17.71654,0 0,-35.75197 17.71654,0 0,-35.114173 -17.71654,0 0,-17.875984"
         inkscape:connector-curvature="0" />
    </g>
    <rect
       style="fill:none;fill-opacity:1;stroke:#000000;stroke-width:0.38587996;stroke-opacity:1"
       id="rect4003"
       width="57.756981"
       height="144.89983"
       x="592.55005"
       y="127.76945" />
    <text
       xml:space="preserve"
       style="font-style:normal;font-weight:normal;font-size:150.25357056px;line-height:125%;font-family:sans-serif;text-align:center;letter-spacing:0px;word-spacing:0px;text-anchor:middle;fill:#000000;fill-opacity:1;stroke:none;stroke-width:1px;stroke-linecap:butt;stroke-linejoin:miter;stroke-opacity:1"
       x="-1197.2345"
       y="1250.1843"
       id="text4805"
       sodipodi:linespacing="125%"
       transform="matrix(0,-1,1,0,0,0)"><tspan
         sodipodi:role="line"
         id="tspan4807"
         x="-1197.2345"
         y="1250.1843"
         style="font-style:normal;font-variant:normal;font-weight:normal;font-stretch:condensed;font-family:Impact;-inkscape-font-specification:'Impact Condensed';text-align:center;text-anchor:middle">FSIN</tspan><tspan
         sodipodi:role="line"
         x="-1197.2345"
         y="1438.0013"
         style="font-style:normal;font-variant:normal;font-weight:normal;font-stretch:condensed;font-family:Impact;-inkscape-font-specification:'Impact Condensed';text-align:center;text-anchor:middle"
         id="tspan4811">Matomat</tspan><tspan
         sodipodi:role="line"
         x="-1197.2345"
         y="1625.8182"
         style="font-style:normal;font-variant:normal;font-weight:normal;font-stretch:condensed;font-family:Impact;-inkscape-font-specification:'Impact Condensed';text-align:center;text-anchor:middle"
         id="tspan4809" /></text>
    <rect
       style="fill:none;fill-opacity:1;stroke:#000000;stroke-opacity:1"
       id="rect3391-2"
       width="580.58154"
       height="350.8876"
       x="-1549.9407"
       y="596.42749"
       transform="matrix(0,-1,1,0,0,0)" />
  </g>
  <g
     inkscape:label="newlayer"
     inkscape:groupmode="layer"
     id="g3573" />
  <g
     id="g3691"
     inkscape:groupmode="layer"
     inkscape:label="newlayer" />
</svg>
