<?xml version="1.0" encoding="UTF-8" standalone="no"?>
<!-- Created with Inkscape (http://www.inkscape.org/) -->

<svg
   xmlns:dc="http://purl.org/dc/elements/1.1/"
   xmlns:cc="http://creativecommons.org/ns#"
   xmlns:rdf="http://www.w3.org/1999/02/22-rdf-syntax-ns#"
   xmlns:svg="http://www.w3.org/2000/svg"
   xmlns="http://www.w3.org/2000/svg"
   xmlns:sodipodi="http://sodipodi.sourceforge.net/DTD/sodipodi-0.dtd"
   xmlns:inkscape="http://www.inkscape.org/namespaces/inkscape"
   width="210mm"
   height="297mm"
   viewBox="0 0 744.09448819 1052.3622047"
   id="svg2"
   version="1.1"
   inkscape:version="0.91 r13725"
   sodipodi:docname="matomat_case.svg">
  <sodipodi:namedview
     id="base"
     pagecolor="#ffffff"
     bordercolor="#666666"
     borderopacity="1.0"
     inkscape:pageopacity="0.0"
     inkscape:pageshadow="2"
     inkscape:zoom="0.24748737"
     inkscape:cx="1579.4177"
     inkscape:cy="-304.28279"
     inkscape:document-units="mm"
     inkscape:current-layer="layer1"
     showgrid="false"
     inkscape:window-width="1366"
     inkscape:window-height="713"
     inkscape:window-x="0"
     inkscape:window-y="0"
     inkscape:window-maximized="1" />
  <defs
     id="defs4" />
  <metadata
     id="metadata7">
    <rdf:RDF>
      <cc:Work
         rdf:about="">
        <dc:format>image/svg+xml</dc:format>
        <dc:type
           rdf:resource="http://purl.org/dc/dcmitype/StillImage" />
        <dc:title />
      </cc:Work>
    </rdf:RDF>
  </metadata>
  <g
     inkscape:label="Ebene 1"
     inkscape:groupmode="layer"
     id="layer1">
    <g
       id="g3408"
       transform="matrix(0,-1,1,0,-1299.0198,1654.8996)">
      <rect
         y="-15.155243"
         x="223.74065"
         height="432.21191"
         width="661.32764"
         id="rect3406"
         style="fill:#ff0000;fill-opacity:1;stroke:none;stroke-opacity:1" />
      <rect
         y="-19.177841"
         x="223.89195"
         height="440.32678"
         width="584.29132"
         id="rect3336"
         style="fill:#29867e;fill-opacity:1;stroke:none;stroke-opacity:1" />
      <rect
         y="22.1889"
         x="224.70413"
         height="350.8876"
         width="580.58154"
         id="rect3391"
         style="fill:#000080;fill-opacity:1;stroke:none;stroke-opacity:1" />
      <rect
         y="38.076488"
         x="237.14285"
         height="307.85715"
         width="545.71429"
         id="rect3395"
         style="fill:#000000;fill-opacity:1;stroke:none;stroke-opacity:1" />
    </g>
    <g
       id="g3967"
       transform="translate(-217.14285,80)">
      <path
         id="path3525"
         inkscape:label="part"
         style="fill:none;stroke:#000000"
         d="m 751.1811,1516.5354 37.80456,0 0,-17.7165 35.75197,0 0,17.7165 37.6451,0 0,-17.7165 35.75197,0 0,17.7165 37.64511,0 0,-17.7165 35.75197,0 0,17.7165 37.64512,0 0,-17.7165 35.752,0 0,17.7165 37.6451,0 0,-17.7165 35.7519,0 0,17.7165 37.6451,0 0,-17.7165 35.752,0 0,17.7165 37.8046,0"
         inkscape:connector-curvature="0" />
      <path
         id="path3527"
         inkscape:label="part"
         style="fill:none;stroke:#000000"
         d="m 1229.5276,1516.5354 0,17.876 -17.7166,0 0,35.1142 17.7166,0 0,35.752 -17.7166,0 0,35.1141 17.7166,0 0,35.752 -17.7166,0 0,35.1142 17.7166,0 0,35.7519 -17.7166,0 0,35.1142 17.7166,0 0,35.752 -17.7166,0 0,35.1142 17.7166,0 0,35.7519 -17.7166,0 0,35.1142 17.7166,0 0,35.752 -17.7166,0 0,35.1141 17.7166,0 0,35.752 -17.7166,0 0,35.1142 17.7166,0 0,35.752 -17.7166,0 0,35.1141 17.7166,0 0,35.752 -17.7166,0 0,35.1142 17.7166,0 0,17.876"
         inkscape:connector-curvature="0" />
      <path
         id="path3529"
         inkscape:label="part"
         style="fill:none;stroke:#000000"
         d="m 1229.5276,2225.1969 -37.8046,0 0,17.7165 -35.752,0 0,-17.7165 -37.6451,0 0,17.7165 -35.7519,0 0,-17.7165 -37.6451,0 0,17.7165 -35.752,0 0,-17.7165 -37.64512,0 0,17.7165 -35.75197,0 0,-17.7165 -37.64511,0 0,17.7165 -35.75197,0 0,-17.7165 -37.6451,0 0,17.7165 -35.75197,0 0,-17.7165 -37.80456,0"
         inkscape:connector-curvature="0" />
      <path
         id="path3531"
         inkscape:label="part"
         style="fill:none;stroke:#000000"
         d="m 751.1811,2225.1969 0,-17.876 17.71654,0 0,-35.1142 -17.71654,0 0,-35.752 17.71654,0 0,-35.1141 -17.71654,0 0,-35.752 17.71654,0 0,-35.1142 -17.71654,0 0,-35.752 17.71654,0 0,-35.1141 -17.71654,0 0,-35.752 17.71654,0 0,-35.1142 -17.71654,0 0,-35.7519 17.71654,0 0,-35.1142 -17.71654,0 0,-35.752 17.71654,0 0,-35.1142 -17.71654,0 0,-35.7519 17.71654,0 0,-35.1142 -17.71654,0 0,-35.752 17.71654,0 0,-35.1141 -17.71654,0 0,-35.752 17.71654,0 0,-35.1142 -17.71654,0 0,-17.876"
         inkscape:connector-curvature="0" />
    </g>
    <g
       id="g3973"
       transform="translate(-214.28571,77.142857)">
      <path
         id="path3533"
         inkscape:label="part"
         style="fill:none;stroke:#000000"
         d="m 21.259843,768.89764 17.557086,0 0,-17.71654 35.751969,0 0,17.71654 35.114172,0 0,-17.71654 35.75197,0 0,17.71654 35.11417,0 0,-17.71654 35.75197,0 0,17.71654 35.11417,0 0,-17.71654 35.75197,0 0,17.71654 35.11418,0 0,-17.71654 35.75196,0 0,17.71654 35.11418,0 0,-17.71654 35.75197,0 0,17.71654 35.11417,0 0,-17.71654 35.75197,0 0,17.71654 35.11417,0 0,-17.71654 35.75197,0 0,17.71654 35.11417,0 0,-17.71654 35.75197,0 0,17.71654 35.11417,0 0,-17.71654 35.75197,0 0,17.71654 17.55709,0"
         inkscape:connector-curvature="0" />
      <path
         id="path3535"
         inkscape:label="part"
         style="fill:none;stroke:#000000"
         d="m 729.92126,768.89764 0,17.55708 17.71654,0 0,35.75197 -17.71654,0 0,35.11418 17.71654,0 0,35.75196 -17.71654,0 0,35.11418 17.71654,0 0,35.75197 -17.71654,0 0,35.11417 17.71654,0 0,35.75195 -17.71654,0 0,35.1142 17.71654,0 0,35.752 -17.71654,0 0,35.1141 17.71654,0 0,35.752 -17.71654,0 0,35.1142 17.71654,0 0,35.7519 -17.71654,0 0,35.1142 17.71654,0 0,35.752 -17.71654,0 0,35.1142 17.71654,0 0,35.7519 -17.71654,0 0,35.1142 17.71654,0 0,35.752 -17.71654,0 0,17.5571"
         inkscape:connector-curvature="0" />
      <path
         id="path3537"
         inkscape:label="part"
         style="fill:none;stroke:#000000"
         d="m 729.92126,1477.5591 -17.55709,0 0,17.7165 -35.75197,0 0,-17.7165 -35.11417,0 0,17.7165 -35.75197,0 0,-17.7165 -35.11417,0 0,17.7165 -35.75197,0 0,-17.7165 -35.11417,0 0,17.7165 -35.75197,0 0,-17.7165 -35.11417,0 0,17.7165 -35.75197,0 0,-17.7165 -35.11418,0 0,17.7165 -35.75196,0 0,-17.7165 -35.11418,0 0,17.7165 -35.75197,0 0,-17.7165 -35.11417,0 0,17.7165 -35.75197,0 0,-17.7165 -35.11417,0 0,17.7165 -35.75197,0 0,-17.7165 -35.114172,0 0,17.7165 -35.751969,0 0,-17.7165 -17.557086,0"
         inkscape:connector-curvature="0" />
      <path
         id="path3539"
         inkscape:label="part"
         style="fill:none;stroke:#000000"
         d="m 21.259843,1477.5591 0,-17.5571 -17.7165359,0 0,-35.752 17.7165359,0 0,-35.1142 -17.7165359,0 0,-35.7519 17.7165359,0 0,-35.1142 -17.7165359,0 0,-35.752 17.7165359,0 0,-35.1142 -17.7165359,0 0,-35.7519 17.7165359,0 0,-35.1142 -17.7165359,0 0,-35.752 17.7165359,0 0,-35.1141 -17.7165359,0 0,-35.752 17.7165359,0 0,-35.1142 -17.7165359,0 0,-35.75195 17.7165359,0 0,-35.11417 -17.7165359,0 0,-35.75197 17.7165359,0 0,-35.11418 -17.7165359,0 0,-35.75196 17.7165359,0 0,-35.11418 -17.7165359,0 0,-35.75197 17.7165359,0 0,-17.55708"
         inkscape:connector-curvature="0" />
    </g>
    <g
       id="g3991"
       transform="translate(-217.14286,88.571429)">
      <path
         id="path3557"
         inkscape:label="part"
         style="fill:none;stroke:#000000"
         d="m 1980.7087,751.1811 38.1234,0 0,17.71654 35.1142,0 0,-17.71654 38.2829,0 0,17.71654 35.1142,0 0,-17.71654 38.2829,0 0,17.71654 35.1141,0 0,-17.71654 38.2829,0 0,17.71654 35.1142,0 0,-17.71654 38.2829,0 0,17.71654 35.1142,0 0,-17.71654 38.2829,0 0,17.71654 35.1142,0 0,-17.71654 38.1234,0"
         inkscape:connector-curvature="0" />
      <path
         id="path3559"
         inkscape:label="part"
         style="fill:none;stroke:#000000"
         d="m 2459.0551,751.1811 0,35.59252 -17.7165,0 0,35.11418 17.7165,0 0,35.75196 -17.7165,0 0,35.11418 17.7165,0 0,35.75197 -17.7165,0 0,35.11417 17.7165,0 0,35.75197 -17.7165,0 0,35.11415 17.7165,0 0,35.752 -17.7165,0 0,35.1142 17.7165,0 0,35.7519 -17.7165,0 0,35.1142 17.7165,0 0,35.752 -17.7165,0 0,35.1141 17.7165,0 0,35.752 -17.7165,0 0,35.1142 17.7165,0 0,35.752 -17.7165,0 0,35.1141 17.7165,0 0,35.752 -17.7165,0 0,35.1142 17.7165,0 0,35.5925"
         inkscape:connector-curvature="0" />
      <path
         id="path3561"
         inkscape:label="part"
         style="fill:none;stroke:#000000"
         d="m 2459.0551,1495.2756 -38.1234,0 0,-17.7165 -35.1142,0 0,17.7165 -38.2829,0 0,-17.7165 -35.1142,0 0,17.7165 -38.2829,0 0,-17.7165 -35.1142,0 0,17.7165 -38.2829,0 0,-17.7165 -35.1141,0 0,17.7165 -38.2829,0 0,-17.7165 -35.1142,0 0,17.7165 -38.2829,0 0,-17.7165 -35.1142,0 0,17.7165 -38.1234,0"
         inkscape:connector-curvature="0" />
      <path
         id="path3563"
         inkscape:label="part"
         style="fill:none;stroke:#000000"
         d="m 1980.7087,1495.2756 0,-35.5925 17.7165,0 0,-35.1142 -17.7165,0 0,-35.752 17.7165,0 0,-35.1141 -17.7165,0 0,-35.752 17.7165,0 0,-35.1142 -17.7165,0 0,-35.752 17.7165,0 0,-35.1141 -17.7165,0 0,-35.752 17.7165,0 0,-35.1142 -17.7165,0 0,-35.7519 17.7165,0 0,-35.1142 -17.7165,0 0,-35.752 17.7165,0 0,-35.11415 -17.7165,0 0,-35.75197 17.7165,0 0,-35.11417 -17.7165,0 0,-35.75197 17.7165,0 0,-35.11418 -17.7165,0 0,-35.75196 17.7165,0 0,-35.11418 -17.7165,0 0,-35.59252"
         inkscape:connector-curvature="0" />
    </g>
    <g
       id="g4185">
      <g
         transform="translate(-217.14286,77.142857)"
         id="g3997">
        <path
           inkscape:connector-curvature="0"
           d="m 751.1811,21.259843 37.80456,0 0,-17.7165359 35.75197,0 0,17.7165359 37.6451,0 0,-17.7165359 35.75197,0 0,17.7165359 37.64511,0 0,-17.7165359 35.75197,0 0,17.7165359 37.64512,0 0,-17.7165359 35.752,0 0,17.7165359 37.6451,0 0,-17.7165359 35.7519,0 0,17.7165359 37.6451,0 0,-17.7165359 35.752,0 0,17.7165359 37.8046,0"
           style="fill:none;stroke:#000000"
           inkscape:label="part"
           id="path3565" />
        <path
           inkscape:connector-curvature="0"
           d="m 1229.5276,21.259843 0,17.875984 -17.7166,0 0,35.114173 17.7166,0 0,35.75197 -17.7166,0 0,35.11417 17.7166,0 0,35.75197 -17.7166,0 0,35.11417 17.7166,0 0,35.75197 -17.7166,0 0,35.11418 17.7166,0 0,35.75196 -17.7166,0 0,35.11418 17.7166,0 0,35.75197 -17.7166,0 0,35.11417 17.7166,0 0,35.75197 -17.7166,0 0,35.11417 17.7166,0 0,35.75197 -17.7166,0 0,35.11417 17.7166,0 0,35.75197 -17.7166,0 0,35.11417 17.7166,0 0,35.75197 -17.7166,0 0,35.11418 17.7166,0 0,17.87598"
           style="fill:none;stroke:#000000"
           inkscape:label="part"
           id="path3567" />
        <path
           inkscape:connector-curvature="0"
           d="m 1229.5276,729.92126 -37.8046,0 0,17.71654 -35.752,0 0,-17.71654 -37.6451,0 0,17.71654 -35.7519,0 0,-17.71654 -37.6451,0 0,17.71654 -35.752,0 0,-17.71654 -37.64512,0 0,17.71654 -35.75197,0 0,-17.71654 -37.64511,0 0,17.71654 -35.75197,0 0,-17.71654 -37.6451,0 0,17.71654 -35.75197,0 0,-17.71654 -37.80456,0"
           style="fill:none;stroke:#000000"
           inkscape:label="part"
           id="path3569" />
        <path
           inkscape:connector-curvature="0"
           d="m 751.1811,729.92126 0,-17.87598 17.71654,0 0,-35.11418 -17.71654,0 0,-35.75197 17.71654,0 0,-35.11417 -17.71654,0 0,-35.75197 17.71654,0 0,-35.11417 -17.71654,0 0,-35.75197 17.71654,0 0,-35.11417 -17.71654,0 0,-35.75197 17.71654,0 0,-35.11417 -17.71654,0 0,-35.75197 17.71654,0 0,-35.11418 -17.71654,0 0,-35.75196 17.71654,0 0,-35.11418 -17.71654,0 0,-35.75197 17.71654,0 0,-35.11417 -17.71654,0 0,-35.75197 17.71654,0 0,-35.11417 -17.71654,0 0,-35.75197 17.71654,0 0,-35.114173 -17.71654,0 0,-17.875984"
           style="fill:none;stroke:#000000"
           inkscape:label="part"
           id="path3571" />
      </g>
      <rect
         y="127.76945"
         x="592.55005"
         height="144.89983"
         width="57.756981"
         id="rect4003"
         style="fill:none;fill-opacity:1;stroke:#000000;stroke-width:0.38587996;stroke-opacity:1" />
    </g>
    <g
       id="g4184">
      <g
         transform="translate(-217.14285,85.714281)"
         id="g3985">
        <path
           inkscape:connector-curvature="0"
           d="m 1250.7874,768.89764 17.5571,0 0,-17.71654 35.752,0 0,17.71654 35.1141,0 0,-17.71654 35.752,0 0,17.71654 35.1142,0 0,-17.71654 35.7519,0 0,17.71654 35.1142,0 0,-17.71654 35.752,0 0,17.71654 35.1142,0 0,-17.71654 35.7519,0 0,17.71654 35.1142,0 0,-17.71654 35.752,0 0,17.71654 35.1141,0 0,-17.71654 35.752,0 0,17.71654 35.1142,0 0,-17.71654 35.7519,0 0,17.71654 35.1142,0 0,-17.71654 35.752,0 0,17.71654 35.1142,0 0,-17.71654 35.7519,0 0,17.71654 17.5571,0"
           style="fill:none;stroke:#000000"
           inkscape:label="part"
           id="path3549" />
        <path
           inkscape:connector-curvature="0"
           d="m 1959.4488,768.89764 0,17.55708 17.7166,0 0,35.75197 -17.7166,0 0,35.11418 17.7166,0 0,35.75196 -17.7166,0 0,35.11418 17.7166,0 0,35.75197 -17.7166,0 0,35.11417 17.7166,0 0,35.75195 -17.7166,0 0,35.1142 17.7166,0 0,35.752 -17.7166,0 0,35.1141 17.7166,0 0,35.752 -17.7166,0 0,35.1142 17.7166,0 0,35.7519 -17.7166,0 0,35.1142 17.7166,0 0,35.752 -17.7166,0 0,35.1142 17.7166,0 0,35.7519 -17.7166,0 0,35.1142 17.7166,0 0,35.752 -17.7166,0 0,17.5571"
           style="fill:none;stroke:#000000"
           inkscape:label="part"
           id="path3551" />
        <path
           inkscape:connector-curvature="0"
           d="m 1959.4488,1477.5591 -17.5571,0 0,17.7165 -35.7519,0 0,-17.7165 -35.1142,0 0,17.7165 -35.752,0 0,-17.7165 -35.1142,0 0,17.7165 -35.7519,0 0,-17.7165 -35.1142,0 0,17.7165 -35.752,0 0,-17.7165 -35.1141,0 0,17.7165 -35.752,0 0,-17.7165 -35.1142,0 0,17.7165 -35.7519,0 0,-17.7165 -35.1142,0 0,17.7165 -35.752,0 0,-17.7165 -35.1142,0 0,17.7165 -35.7519,0 0,-17.7165 -35.1142,0 0,17.7165 -35.752,0 0,-17.7165 -35.1141,0 0,17.7165 -35.752,0 0,-17.7165 -17.5571,0"
           style="fill:none;stroke:#000000"
           inkscape:label="part"
           id="path3553" />
        <path
           inkscape:connector-curvature="0"
           d="m 1250.7874,1477.5591 0,-17.5571 -17.7165,0 0,-35.752 17.7165,0 0,-35.1142 -17.7165,0 0,-35.7519 17.7165,0 0,-35.1142 -17.7165,0 0,-35.752 17.7165,0 0,-35.1142 -17.7165,0 0,-35.7519 17.7165,0 0,-35.1142 -17.7165,0 0,-35.752 17.7165,0 0,-35.1141 -17.7165,0 0,-35.752 17.7165,0 0,-35.1142 -17.7165,0 0,-35.75195 17.7165,0 0,-35.11417 -17.7165,0 0,-35.75197 17.7165,0 0,-35.11418 -17.7165,0 0,-35.75196 17.7165,0 0,-35.11418 -17.7165,0 0,-35.75197 17.7165,0 0,-17.55708"
           style="fill:none;stroke:#000000"
           inkscape:label="part"
           id="path3555" />
      </g>
      <g
         id="text4805"
         style="font-style:normal;font-weight:normal;font-size:150.25357056px;line-height:125%;font-family:sans-serif;text-align:center;letter-spacing:0px;word-spacing:0px;text-anchor:middle;fill:#fe1313;fill-opacity:1;stroke:none;stroke-width:1px;stroke-linecap:butt;stroke-linejoin:miter;stroke-opacity:1"
         transform="matrix(0,-1,1,0,0,0)">
        <path
           id="path4177"
           style="font-style:normal;font-variant:normal;font-weight:normal;font-stretch:condensed;font-family:Impact;-inkscape-font-specification:'Impact Condensed';text-align:center;text-anchor:middle;fill:#fe1313;fill-opacity:1"
           d="m -1322.2502,1131.4048 52.31,0 0,23.7706 -21.4229,0 0,22.5233 19.0752,0 0,22.5967 -19.0752,0 0,49.8889 -30.8871,0 0,-118.7795 z" />
        <path
           id="path4179"
           style="font-style:normal;font-variant:normal;font-weight:normal;font-stretch:condensed;font-family:Impact;-inkscape-font-specification:'Impact Condensed';text-align:center;text-anchor:middle;fill:#fe1313;fill-opacity:1"
           d="m -1196.941,1167.3541 -28.6861,0 0,-8.8039 q 0,-6.1628 -1.1005,-7.8502 -1.1005,-1.6874 -3.6683,-1.6874 -2.7879,0 -4.2553,2.2744 -1.3939,2.2743 -1.3939,6.8964 0,5.9426 1.614,8.9506 1.5407,3.008 8.7306,7.2632 20.6158,12.2522 25.9716,20.1023 5.3557,7.8502 5.3557,25.3113 0,12.6923 -3.008,18.7083 -2.9347,6.016 -11.4451,10.1245 -8.5105,4.0352 -19.8088,4.0352 -12.3989,0 -21.2028,-4.6955 -8.7306,-4.6954 -11.4451,-11.9586 -2.7146,-7.2632 -2.7146,-20.6159 l 0,-7.7768 28.6861,0 0,14.4531 q 0,6.6764 1.1739,8.5839 1.2472,1.9075 4.3286,1.9075 3.0814,0 4.5487,-2.4211 1.5407,-2.4211 1.5407,-7.1899 0,-10.4913 -2.8613,-13.7194 -2.9346,-3.2281 -14.4531,-10.7848 -11.5185,-7.6301 -15.2601,-11.0783 -3.7417,-3.4482 -6.2361,-9.5376 -2.4211,-6.0893 -2.4211,-15.5535 0,-13.6461 3.4482,-19.9556 3.5216,-6.3095 11.2984,-9.831 7.7767,-3.595 18.7816,-3.595 12.0321,0 20.4692,3.8884 8.5104,3.8884 11.225,9.8311 2.7879,5.8692 2.7879,20.0289 l 0,4.6954 z" />
        <path
           id="path4181"
           style="font-style:normal;font-variant:normal;font-weight:normal;font-stretch:condensed;font-family:Impact;-inkscape-font-specification:'Impact Condensed';text-align:center;text-anchor:middle;fill:#fe1313;fill-opacity:1"
           d="m -1153.7285,1131.4048 0,118.7795 -30.8871,0 0,-118.7795 30.8871,0 z" />
        <path
           id="path4183"
           style="font-style:normal;font-variant:normal;font-weight:normal;font-stretch:condensed;font-family:Impact;-inkscape-font-specification:'Impact Condensed';text-align:center;text-anchor:middle;fill:#fe1313;fill-opacity:1"
           d="m -1072.2188,1131.4048 0,118.7795 -27.0721,0 -16.0671,-53.9974 0,53.9974 -25.8249,0 0,-118.7795 25.8249,0 17.3143,53.4838 0,-53.4838 25.8249,0 z" />
        <path
           id="path4185"
           style="font-style:normal;font-variant:normal;font-weight:normal;font-stretch:condensed;font-family:Impact;-inkscape-font-specification:'Impact Condensed';text-align:center;text-anchor:middle;fill:#fe1313;fill-opacity:1"
           d="m -1367.517,1319.2217 0,118.7796 -26.9987,0 0,-80.189 -10.7848,80.189 -19.1485,0 -11.3717,-78.3549 0,78.3549 -26.9987,0 0,-118.7796 39.9844,0 q 1.7608,10.7115 3.7417,25.2379 l 4.2552,30.2268 7.0432,-55.4647 40.2779,0 z" />
        <path
           id="path4187"
           style="font-style:normal;font-variant:normal;font-weight:normal;font-stretch:condensed;font-family:Impact;-inkscape-font-specification:'Impact Condensed';text-align:center;text-anchor:middle;fill:#fe1313;fill-opacity:1"
           d="m -1329.5134,1378.3547 -27.8057,0 0,-6.5295 q 0,-11.2984 2.5678,-17.3878 2.6412,-6.1627 10.4913,-10.8582 7.8502,-4.6954 20.3958,-4.6954 15.04,0 22.6701,5.3557 7.63,5.2824 9.1707,13.0592 1.5407,7.7034 1.5407,31.8408 l 0,48.8618 -28.8328,0 0,-8.6572 q -2.7146,5.209 -7.0432,7.8502 -4.2552,2.5678 -10.1978,2.5678 -7.7768,0 -14.3064,-4.3286 -6.4562,-4.402 -6.4562,-19.1485 l 0,-7.9969 q 0,-10.9316 3.4482,-14.8933 3.4482,-3.9618 17.0943,-9.2442 14.5998,-5.7225 15.6269,-7.7034 1.0271,-1.9809 1.0271,-8.0702 0,-7.6301 -1.1738,-9.9045 -1.1005,-2.3477 -3.7417,-2.3477 -3.008,0 -3.7416,1.9809 -0.7337,1.9075 -0.7337,10.0512 l 0,10.1978 z m 9.3908,13.3526 q -7.1165,5.209 -8.2903,8.7306 -1.1005,3.5216 -1.1005,10.1245 0,7.5567 0.9538,9.7577 1.0271,2.201 3.9617,2.201 2.7879,0 3.595,-1.6875 0.8803,-1.7607 0.8803,-9.0973 l 0,-20.029 z" />
        <path
           id="path4189"
           style="font-style:normal;font-variant:normal;font-weight:normal;font-stretch:condensed;font-family:Impact;-inkscape-font-specification:'Impact Condensed';text-align:center;text-anchor:middle;fill:#fe1313;fill-opacity:1"
           d="m -1249.0309,1327.6588 0,15.3335 7.9969,0 0,15.4069 -7.9969,0 0,52.0898 q 0,9.611 0.9538,10.7115 1.0271,1.1005 8.2903,1.1005 l 0,15.7003 -11.9586,0 q -10.1245,0 -14.4531,-0.807 -4.3286,-0.8804 -7.6301,-3.8884 -3.3015,-3.0814 -4.1085,-6.9698 -0.807,-3.9618 -0.807,-18.4882 l 0,-49.4487 -6.3829,0 0,-15.4069 6.3829,0 0,-15.3335 29.7132,0 z" />
        <path
           id="path4191"
           style="font-style:normal;font-variant:normal;font-weight:normal;font-stretch:condensed;font-family:Impact;-inkscape-font-specification:'Impact Condensed';text-align:center;text-anchor:middle;fill:#fe1313;fill-opacity:1"
           d="m -1167.4479,1374.8332 0,23.8439 q 0,13.1325 -1.3206,19.2953 -1.3206,6.0893 -5.6492,11.4451 -4.3286,5.2823 -11.1516,7.8501 -6.7497,2.4945 -15.5536,2.4945 -9.831,0 -16.6541,-2.1276 -6.823,-2.201 -10.638,-6.5296 -3.7417,-4.402 -5.3558,-10.5647 -1.614,-6.2361 -1.614,-18.635 l 0,-24.9444 q 0,-13.5727 2.9346,-21.2028 2.9347,-7.6301 10.5647,-12.2521 7.6301,-4.6221 19.5154,-4.6221 9.9778,0 17.0943,3.008 7.1898,2.9347 11.0782,7.7035 3.8884,4.7687 5.2824,9.831 1.4673,5.0623 1.4673,15.4069 z m -29.6399,-7.3366 q 0,-7.4834 -0.807,-9.3909 -0.807,-1.9809 -3.4482,-1.9809 -2.6412,0 -3.5216,1.9809 -0.8804,1.9075 -0.8804,9.3909 l 0,43.9462 q 0,6.8964 0.8804,9.024 0.8804,2.0543 3.4482,2.0543 2.6412,0 3.4482,-1.9076 0.8804,-1.9075 0.8804,-8.2169 l 0,-44.9 z" />
        <path
           id="path4193"
           style="font-style:normal;font-variant:normal;font-weight:normal;font-stretch:condensed;font-family:Impact;-inkscape-font-specification:'Impact Condensed';text-align:center;text-anchor:middle;fill:#fe1313;fill-opacity:1"
           d="m -1128.3438,1340.6446 -0.5136,9.2441 q 3.4482,-5.5024 8.217,-8.217 4.7688,-2.7879 10.8582,-2.7879 11.8853,0 18.7083,11.0049 3.7417,-5.5024 8.4371,-8.217 4.6954,-2.7879 10.418,-2.7879 7.5567,0 12.4722,3.6683 4.9889,3.6683 6.3828,9.024 1.394,5.2824 1.394,17.2411 l 0,69.1841 -28.7595,0 0,-63.4616 q 0,-12.4722 -0.8804,-15.4069 -0.807,-3.008 -3.8884,-3.008 -3.1547,0 -4.1085,2.9347 -0.8804,2.9346 -0.8804,15.4802 l 0,63.4616 -28.7594,0 0,-61.8475 q 0,-14.3064 -0.7337,-17.1677 -0.6603,-2.8613 -3.815,-2.8613 -1.9809,0 -3.3749,1.5407 -1.3939,1.4673 -1.5407,3.6683 -0.1467,2.1276 -0.1467,9.1708 l 0,67.4967 -28.7595,0 0,-97.3567 29.2731,0 z" />
        <path
           id="path4195"
           style="font-style:normal;font-variant:normal;font-weight:normal;font-stretch:condensed;font-family:Impact;-inkscape-font-specification:'Impact Condensed';text-align:center;text-anchor:middle;fill:#fe1313;fill-opacity:1"
           d="m -1015.2135,1378.3547 -27.8057,0 0,-6.5295 q 0,-11.2984 2.5678,-17.3878 2.6412,-6.1627 10.4914,-10.8582 7.8501,-4.6954 20.3957,-4.6954 15.04005,0 22.67011,5.3557 7.63006,5.2824 9.17075,13.0592 1.54069,7.7034 1.54069,31.8408 l 0,48.8618 -28.83285,0 0,-8.6572 q -2.7145,5.209 -7.0431,7.8502 -4.2553,2.5678 -10.1979,2.5678 -7.7768,0 -14.3064,-4.3286 -6.4562,-4.402 -6.4562,-19.1485 l 0,-7.9969 q 0,-10.9316 3.4482,-14.8933 3.4482,-3.9618 17.0943,-9.2442 14.5998,-5.7225 15.627,-7.7034 1.0271,-1.9809 1.0271,-8.0702 0,-7.6301 -1.1739,-9.9045 -1.1005,-2.3477 -3.7416,-2.3477 -3.008,0 -3.7417,1.9809 -0.7337,1.9075 -0.7337,10.0512 l 0,10.1978 z m 9.3909,13.3526 q -7.1165,5.209 -8.2904,8.7306 -1.1005,3.5216 -1.1005,10.1245 0,7.5567 0.9538,9.7577 1.0271,2.201 3.9618,2.201 2.7879,0 3.5949,-1.6875 0.8804,-1.7607 0.8804,-9.0973 l 0,-20.029 z" />
        <path
           id="path4197"
           style="font-style:normal;font-variant:normal;font-weight:normal;font-stretch:condensed;font-family:Impact;-inkscape-font-specification:'Impact Condensed';text-align:center;text-anchor:middle;fill:#fe1313;fill-opacity:1"
           d="m -934.73096,1327.6588 0,15.3335 7.99689,0 0,15.4069 -7.99689,0 0,52.0898 q 0,9.611 0.95376,10.7115 1.02712,1.1005 8.29035,1.1005 l 0,15.7003 -11.95865,0 q -10.12451,0 -14.45311,-0.807 -4.32859,-0.8804 -7.63006,-3.8884 -3.30147,-3.0814 -4.1085,-6.9698 -0.80702,-3.9618 -0.80702,-18.4882 l 0,-49.4487 -6.38284,0 0,-15.4069 6.38284,0 0,-15.3335 29.71323,0 z" />
      </g>
    </g>
    <g
       id="g3979"
       transform="translate(-214.28571,79.999999)">
      <path
         id="path3541"
         inkscape:label="part"
         style="fill:none;stroke:#000000"
         d="m 751.1811,751.1811 38.12346,0 0,17.71654 35.11417,0 0,-17.71654 38.2829,0 0,17.71654 35.11417,0 0,-17.71654 38.28291,0 0,17.71654 35.11417,0 0,-17.71654 38.28292,0 0,17.71654 35.1142,0 0,-17.71654 38.2829,0 0,17.71654 35.1141,0 0,-17.71654 38.2829,0 0,17.71654 35.1142,0 0,-17.71654 38.1235,0"
         inkscape:connector-curvature="0" />
      <path
         id="path3543"
         inkscape:label="part"
         style="fill:none;stroke:#000000"
         d="m 1229.5276,751.1811 0,35.59252 -17.7166,0 0,35.11418 17.7166,0 0,35.75196 -17.7166,0 0,35.11418 17.7166,0 0,35.75197 -17.7166,0 0,35.11417 17.7166,0 0,35.75197 -17.7166,0 0,35.11415 17.7166,0 0,35.752 -17.7166,0 0,35.1142 17.7166,0 0,35.7519 -17.7166,0 0,35.1142 17.7166,0 0,35.752 -17.7166,0 0,35.1141 17.7166,0 0,35.752 -17.7166,0 0,35.1142 17.7166,0 0,35.752 -17.7166,0 0,35.1141 17.7166,0 0,35.752 -17.7166,0 0,35.1142 17.7166,0 0,35.5925"
         inkscape:connector-curvature="0" />
      <path
         id="path3545"
         inkscape:label="part"
         style="fill:none;stroke:#000000"
         d="m 1229.5276,1495.2756 -38.1235,0 0,-17.7165 -35.1142,0 0,17.7165 -38.2829,0 0,-17.7165 -35.1141,0 0,17.7165 -38.2829,0 0,-17.7165 -35.1142,0 0,17.7165 -38.28292,0 0,-17.7165 -35.11417,0 0,17.7165 -38.28291,0 0,-17.7165 -35.11417,0 0,17.7165 -38.2829,0 0,-17.7165 -35.11417,0 0,17.7165 -38.12346,0"
         inkscape:connector-curvature="0" />
      <path
         id="path3547"
         inkscape:label="part"
         style="fill:none;stroke:#000000"
         d="m 751.1811,1495.2756 0,-35.5925 17.71654,0 0,-35.1142 -17.71654,0 0,-35.752 17.71654,0 0,-35.1141 -17.71654,0 0,-35.752 17.71654,0 0,-35.1142 -17.71654,0 0,-35.752 17.71654,0 0,-35.1141 -17.71654,0 0,-35.752 17.71654,0 0,-35.1142 -17.71654,0 0,-35.7519 17.71654,0 0,-35.1142 -17.71654,0 0,-35.752 17.71654,0 0,-35.11415 -17.71654,0 0,-35.75197 17.71654,0 0,-35.11417 -17.71654,0 0,-35.75197 17.71654,0 0,-35.11418 -17.71654,0 0,-35.75196 17.71654,0 0,-35.11418 -17.71654,0 0,-35.59252"
         inkscape:connector-curvature="0" />
    </g>
    <rect
       style="fill:none;fill-opacity:1;stroke:#000000;stroke-width:1.02418208;stroke-opacity:1"
       id="rect3391-2"
       width="587.16479"
       height="363.93646"
       x="-1549.9286"
       y="596.43964"
       transform="matrix(0,-1,1,0,0,0)" />
  </g>
  <g
     inkscape:label="newlayer"
     inkscape:groupmode="layer"
     id="g3573" />
  <g
     id="g3691"
     inkscape:groupmode="layer"
     inkscape:label="newlayer" />
</svg>
